<?xml version="1.0" encoding="UTF-8" standalone="no"?>
<svg
   xmlns:dc="http://purl.org/dc/elements/1.1/"
   xmlns:cc="http://creativecommons.org/ns#"
   xmlns:rdf="http://www.w3.org/1999/02/22-rdf-syntax-ns#"
   xmlns:svg="http://www.w3.org/2000/svg"
   xmlns="http://www.w3.org/2000/svg"
   xmlns:sodipodi="http://sodipodi.sourceforge.net/DTD/sodipodi-0.dtd"
   xmlns:inkscape="http://www.inkscape.org/namespaces/inkscape"
   id="Layer_1"
   data-name="Layer 1"
   viewBox="0 0 299.99999 70.000001"
   version="1.1"
   sodipodi:docname="overleaf.svg"
   width="300"
   height="70"
   inkscape:version="0.92.2 2405546, 2018-03-11">
  <metadata
     id="metadata18">
    <rdf:RDF>
      <cc:Work
         rdf:about="">
        <dc:format>image/svg+xml</dc:format>
        <dc:type
           rdf:resource="http://purl.org/dc/dcmitype/StillImage" />
        <dc:title>stickers alt</dc:title>
      </cc:Work>
    </rdf:RDF>
  </metadata>
  <sodipodi:namedview
     pagecolor="#ffffff"
     bordercolor="#666666"
     borderopacity="1"
     objecttolerance="10"
     gridtolerance="10"
     guidetolerance="10"
     inkscape:pageopacity="0"
     inkscape:pageshadow="2"
     inkscape:window-width="1366"
     inkscape:window-height="718"
     id="namedview16"
     showgrid="false"
     inkscape:zoom="2.0502581"
     inkscape:cx="177.08711"
     inkscape:cy="-24.635273"
     inkscape:window-x="0"
     inkscape:window-y="0"
     inkscape:window-maximized="1"
     inkscape:current-layer="Layer_1" />
  <defs
     id="defs5">
    <mask
       id="mask"
       x="24.94"
       y="24.88"
       width="436.94"
       height="228.83"
       maskUnits="userSpaceOnUse">
      <g
         id="b">
        <path
           id="a"
           d="M 461.86,253.62 H 25 V 24.88 h 436.86 z"
           inkscape:connector-curvature="0"
           style="fill:#ffffff" />
      </g>
    </mask>
  </defs>
  <title
     id="title7">stickers alt</title>
  <g
     mask="url(#mask)"
     id="g11"
     transform="matrix(0.25923436,0,0,0.25923436,40.823257,-0.1146473)">
    <path
       d="m 312.65,185.52 c 0.85,7.88 4,14.16 9.42,18.66 5.42,4.5 12.41,6.86 21,6.86 a 32.75,32.75 0 0 0 15.37,-3.59 27.42,27.42 0 0 0 10.8,-10.07 h 27.52 c -4.67,11.94 -11.59,21.23 -20.88,27.86 -9.29,6.63 -20,9.9 -32.12,9.9 a 57.64,57.64 0 0 1 -22.57,-4.32 55,55 0 0 1 -18.55,-12.82 57.62,57.62 0 0 1 -12.12,-18.69 56.38,56.38 0 0 1 -4.38,-21.76 58.8,58.8 0 0 1 3.94,-21.55 55,55 0 0 1 11.53,-18.19 59.67,59.67 0 0 1 19,-13.58 51.34,51.34 0 0 1 21.76,-4.82 57.14,57.14 0 0 1 26.57,6.42 64.28,64.28 0 0 1 21,18.25 48.87,48.87 0 0 1 7.75,15.92 75.94,75.94 0 0 1 2.54,20.15 c 0,0.58 0,1.46 -0.12,2.77 -0.12,1.31 -0.15,2.19 -0.15,2.77 h -87.6 z m 60.45,-20.25 q -3.24,-11 -11,-16.69 c -5.14,-3.8 -11.64,-5.72 -19.46,-5.72 a 29.16,29.16 0 0 0 -18.25,6.14 30.18,30.18 0 0 0 -11,16.21 h 59.71 z m 88.77,-20.44 c -9.93,0.79 -16.82,3.4 -20.73,7.8 -3.91,4.4 -5.88,12.26 -5.88,23.7 v 55.92 H 409.75 V 122.62 h 23.9 v 12.66 a 38.1,38.1 0 0 1 12.66,-11 33.12,33.12 0 0 1 15.48,-3.5 v 23.8 z M 222.35,32 C 191.45,20 79.45,15.5 79.26,82.33 c -32.68,20.92 -54.32,55 -54.32,91.52 A 79.84,79.84 0 1 0 133.22,99.27 c -5.78,-2.23 -18.34,-6.18 -28.37,-5.33 -14.31,9.1 -31.76,27.8 -40,46.43 a 52.39,52.39 0 1 1 39.8,86.09 52.44,52.44 0 0 1 -40,-18.43 C 50.49,191.36 46.84,173.28 49.76,155.61 59.84,93.68 133.28,58.45 187.89,44.91 170.08,54.34 137.95,69.83 115.47,86.71 181,112 191.64,56.76 222.35,32 Z m 26.57,200.21 h -20 L 187.23,122.62 h 27.19 l 25.51,72.86 26.33,-72.86 h 26.49 l -43.8,109.63 z"
       id="path9"
       inkscape:connector-curvature="0"
       style="fill:#79786f" />
  </g>
  <path
     d="m 179.2544,47.978513 c 0.22034,2.042767 1.03693,3.670759 2.44198,4.837314 1.40505,1.166554 3.2171,1.778347 5.44393,1.778347 a 8.4899257,8.4899257 0 0 0 3.98443,-0.930651 7.4270647,7.4270647 0 0 0 2.79972,-2.61049 h 7.10563 c -1.21063,3.095258 -3.02787,5.503545 -5.41283,7.222269 a 14.047909,14.047909 0 0 1 -8.3266,2.56642 15.004485,15.004485 0 0 1 -5.86648,-1.119891 14.638964,14.638964 0 0 1 -4.80102,-3.323386 14.937083,14.937083 0 0 1 -3.14192,-4.845089 14.615634,14.615634 0 0 1 -1.13544,-5.640941 15.24298,15.24298 0 0 1 1.02139,-5.586501 14.283814,14.283814 0 0 1 2.99674,-4.715473 15.769226,15.769226 0 0 1 4.92545,-3.520402 13.739422,13.739422 0 0 1 5.67723,-1.249509 14.846351,14.846351 0 0 1 6.88787,1.664284 16.362873,16.362873 0 0 1 5.44392,4.731027 13.031711,13.031711 0 0 1 2.0324,4.127011 18.773753,18.773753 0 0 1 0.66881,5.223573 c 0,0.150356 -0.0155,0.378482 -0.0311,0.718078 -0.0155,0.339598 -0.0389,0.567724 -0.0389,0.71808 H 179.1844 Z m 15.67849,-5.249496 c -0.56772,-1.89241 -1.51393,-3.331162 -2.85158,-4.326621 -1.33765,-0.99546 -3.01231,-1.482821 -5.0421,-1.482821 a 7.590382,7.590382 0 0 0 -4.744,1.591699 7.7459227,7.7459227 0 0 0 -2.81528,4.20219 h 15.44777 z m 33.35828,17.368703 v -3.497072 a 7.3441095,7.3441095 0 0 1 -3.34153,3.13155 c -1.43875,0.668826 -3.2819,1.003239 -5.5191,1.003239 q -6.30199,0 -10.52233,-4.303291 -4.22033,-4.30329 -4.22811,-10.662309 a 15.315567,15.315567 0 0 1 1.06026,-5.703157 14.200858,14.200858 0 0 1 3.02009,-4.731027 13.684982,13.684982 0 0 1 4.71288,-3.305237 15.079663,15.079663 0 0 1 5.80944,-1.075825 12.775069,12.775069 0 0 1 5.33764,1.055085 8.4095629,8.4095629 0 0 1 3.58521,3.131551 v -3.434855 h 6.46012 v 28.42764 h -6.37975 z M 211.45129,45.647996 c 0,2.392733 0.79586,4.39143 2.42125,6.00646 a 7.8003624,7.8003624 0 0 0 5.82242,2.41088 c 2.07386,0 3.93776,-0.79585 5.52688,-2.421249 a 7.8755403,7.8755403 0 0 0 2.38495,-5.677233 8.2954998,8.2954998 0 0 0 -2.38495,-5.941651 q -2.38496,-2.49902 -5.56317,-2.49902 a 7.8340627,7.8340627 0 0 0 -5.74204,2.384957 7.927387,7.927387 0 0 0 -2.36681,5.791296 z m 40.88127,-13.975324 v 5.889805 h -4.7699 v 22.530058 h -6.39792 V 37.562477 h -3.37004 v -5.889805 h 3.17822 v -0.777703 q 0,-4.484756 2.49901,-6.698618 c 1.66428,-1.464673 4.1633,-2.206084 7.53335,-2.206084 0.15036,0 0.37849,0 0.68179,0.02593 a 5.3583744,5.3583744 0 0 0 0.71807,0.03888 v 5.941652 h -0.45365 c -1.4906,0 -2.5742,0.259234 -3.2171,0.756964 -0.64291,0.497731 -0.95398,1.324688 -0.95398,2.460135 v 0.518469 h 4.64807 z M 163.4411,60.092535 h 6.48085 v -37.6175 h -6.48085 z"
     id="path13"
     inkscape:connector-curvature="0"
     style="fill:#47a141;stroke-width:0.25923437" />
</svg>
